<?xml version="1.0" standalone="no"?>
<!DOCTYPE svg PUBLIC "-//W3C//DTD SVG 20010904//EN"
 "http://www.w3.org/TR/2001/REC-SVG-20010904/DTD/svg10.dtd">
<svg version="1.0" xmlns="http://www.w3.org/2000/svg"
 width="831.000000pt" height="978.000000pt" viewBox="0 0 831.000000 978.000000"
 preserveAspectRatio="xMidYMid meet">

<g transform="translate(0.000000,978.000000) scale(0.100000,-0.100000)"
fill="#594545" stroke="none">
<path d="M1612 9591 c-3 -8 0 -40 6 -71 15 -70 16 -291 1 -379 -20 -127 -32
-177 -66 -281 -109 -331 -267 -514 -553 -638 -62 -28 -191 -62 -255 -69 l-70
-8 -3 -2550 c-2 -1894 0 -2564 9 -2605 46 -224 158 -439 329 -635 98 -113 418
-422 540 -521 19 -16 37 -31 40 -34 8 -8 109 -91 220 -181 224 -181 278 -225
310 -249 18 -14 56 -43 84 -66 28 -22 128 -98 221 -168 94 -70 181 -136 195
-146 235 -176 789 -549 967 -651 17 -10 49 -29 70 -42 66 -41 152 -88 323
-175 l164 -83 156 77 c85 43 205 107 265 142 61 35 124 72 140 82 17 9 66 40
110 68 44 28 103 64 130 80 60 36 479 322 585 400 41 30 98 72 125 92 251 183
680 513 705 540 3 3 28 24 55 45 28 22 52 42 55 45 3 3 64 53 135 112 72 58
139 114 150 124 11 11 38 34 60 53 274 233 527 508 638 691 102 170 142 290
172 520 13 100 15 441 15 2573 0 1351 -2 2457 -4 2457 -35 0 -177 26 -231 42
-318 94 -530 294 -644 608 -7 19 -17 44 -22 55 -15 34 -56 215 -69 305 -11 75
-10 222 3 413 l2 37 -2529 3 c-2166 2 -2529 0 -2534 -12z m4835 -236 c10 -243
55 -480 122 -650 24 -61 105 -218 139 -271 53 -82 158 -192 248 -260 110 -82
307 -176 421 -199 17 -3 36 -12 42 -19 8 -9 10 -216 9 -682 l-3 -669 -3280 0
-3280 0 -3 669 c-1 466 1 673 9 682 6 7 25 16 42 19 177 36 410 168 546 310
116 121 204 268 273 455 65 174 108 406 108 576 0 44 3 84 7 87 3 4 1039 6
2302 5 l2296 -3 2 -50z m981 -4550 c2 -1112 0 -1607 -8 -1670 -29 -233 -94
-386 -248 -584 -94 -121 -342 -368 -516 -516 -32 -28 -64 -54 -70 -60 -13 -12
-124 -105 -146 -122 -8 -7 -49 -40 -90 -74 -41 -33 -84 -69 -95 -78 -11 -9
-39 -31 -62 -49 l-41 -32 -2007 0 -2006 0 -127 102 c-114 92 -309 253 -402
333 -261 225 -517 502 -601 650 -81 144 -110 229 -139 406 -11 74 -15 3261 -3
3272 3 4 1480 6 3282 5 l3276 -3 3 -1580z m-1573 -3405 c3 -5 -49 -50 -116
-100 l-122 -90 -1476 0 c-1393 0 -1478 1 -1497 18 -10 9 -55 44 -99 77 -116
87 -117 88 -102 97 18 11 3405 10 3412 -2z m-545 -408 c0 -4 -62 -49 -137
-100 l-138 -92 -895 2 -895 3 -132 90 c-73 50 -133 93 -133 98 0 4 524 7 1165
7 641 0 1165 -4 1165 -8z m-612 -409 c2 -7 -1 -13 -6 -13 -6 0 -46 -22 -89
-48 -117 -73 -279 -163 -389 -218 l-71 -35 -89 47 c-145 76 -215 115 -314 174
-123 74 -150 92 -144 101 3 5 232 8 551 7 426 -2 547 -6 551 -15z"/>
<path d="M4540 9178 c-75 -22 -114 -40 -170 -78 -137 -93 -220 -266 -220 -459
0 -152 50 -285 147 -391 89 -97 213 -150 353 -150 91 0 158 17 239 60 114 61
213 196 247 339 18 75 17 217 -1 287 -17 65 -63 169 -91 205 -67 85 -168 155
-261 181 -53 15 -201 19 -243 6z m196 -110 c42 -33 61 -57 88 -113 110 -232
66 -625 -83 -730 -87 -61 -191 -28 -252 81 -48 85 -69 188 -69 342 0 144 13
214 55 305 45 98 95 137 175 137 44 0 64 -5 86 -22z"/>
<path d="M3170 9152 c0 -9 10 -22 22 -27 13 -6 31 -26 40 -45 15 -31 17 -80
18 -442 0 -439 -1 -448 -53 -474 -17 -10 -27 -22 -25 -32 3 -15 20 -17 126
-20 111 -2 122 -1 122 15 0 10 -16 31 -35 46 l-35 28 0 339 c0 266 3 340 13
340 6 0 41 -46 75 -101 35 -55 69 -105 76 -112 7 -6 44 -59 82 -117 38 -58 77
-114 86 -124 10 -11 18 -25 18 -32 0 -7 4 -14 8 -16 4 -1 35 -43 67 -93 32
-49 64 -96 71 -103 7 -6 15 -20 19 -30 8 -28 46 -44 96 -40 l44 3 5 486 c5
461 6 488 24 508 11 12 25 21 33 21 7 0 13 9 13 20 0 19 -7 20 -125 20 -101 0
-125 -3 -125 -14 0 -8 15 -24 34 -35 19 -12 37 -28 40 -37 9 -23 7 -544 -2
-544 -4 0 -103 142 -221 315 l-213 315 -149 0 c-136 0 -149 -2 -149 -18z"/>
<path d="M2305 8749 c-24 -12 -62 -66 -66 -94 -5 -46 14 -96 46 -120 25 -20
44 -25 87 -25 46 0 58 4 80 28 14 15 31 43 38 63 12 33 11 41 -9 83 -14 27
-35 53 -52 61 -32 17 -94 19 -124 4z"/>
<path d="M2765 8747 c-48 -30 -65 -60 -65 -121 0 -39 5 -51 35 -81 33 -32 41
-35 94 -35 55 0 61 2 90 35 27 31 31 44 31 90 0 49 -4 58 -35 90 -31 30 -42
35 -83 34 -26 0 -56 -6 -67 -12z"/>
<path d="M5399 8745 c-41 -22 -59 -58 -59 -116 0 -46 4 -55 36 -85 31 -30 42
-34 90 -34 37 0 60 6 75 18 69 58 64 178 -11 217 -36 19 -97 19 -131 0z"/>
<path d="M5855 8741 c-17 -10 -39 -37 -49 -60 -17 -37 -18 -46 -6 -82 19 -58
64 -89 126 -89 40 0 57 6 83 28 63 53 51 171 -22 207 -41 20 -96 19 -132 -4z"/>
<path d="M3035 7936 c-24 -6 -57 -28 -82 -52 -38 -38 -42 -47 -48 -109 -4 -37
-5 -106 -2 -154 7 -128 25 -155 186 -289 84 -71 101 -106 101 -210 0 -108 -13
-132 -70 -132 -57 0 -70 24 -70 127 l0 83 -76 0 -76 0 4 -117 c4 -107 7 -122
31 -160 35 -55 76 -75 162 -81 118 -7 179 20 222 101 26 49 31 267 8 338 -19
55 -72 116 -186 211 -73 60 -89 96 -89 192 0 65 3 78 22 96 28 26 58 26 92 -1
25 -19 26 -25 26 -110 l0 -90 73 3 72 3 0 110 c-1 123 -18 175 -72 213 -56 38
-149 50 -228 28z"/>
<path d="M4690 7937 c-53 -16 -100 -55 -121 -101 -14 -32 -19 -65 -19 -152 0
-176 13 -201 197 -361 79 -69 93 -100 93 -205 0 -103 -13 -128 -69 -128 -59 0
-71 21 -71 123 l0 87 -75 0 -75 0 0 -98 c0 -195 57 -262 220 -262 103 0 158
28 196 100 16 30 19 58 19 185 0 136 -2 154 -22 190 -30 54 -45 70 -133 142
-118 97 -130 117 -130 221 0 69 3 81 23 100 26 25 45 27 81 10 29 -12 35 -35
39 -138 l2 -65 70 0 70 0 0 110 c-1 126 -15 169 -68 208 -56 42 -153 57 -227
34z"/>
<path d="M5260 7937 c-30 -7 -58 -24 -86 -53 -39 -38 -43 -47 -49 -109 -4 -37
-5 -107 -3 -156 6 -106 31 -155 110 -221 97 -82 150 -132 164 -160 9 -18 14
-60 14 -121 0 -107 -11 -127 -72 -127 -56 0 -68 22 -68 124 l0 87 -77 -3 -76
-3 2 -80 c2 -115 11 -161 35 -197 33 -49 78 -71 160 -76 119 -7 179 20 223
101 15 26 18 58 18 178 0 132 -2 149 -23 190 -28 55 -52 82 -117 134 -134 107
-145 124 -145 233 0 71 3 84 22 102 28 26 58 26 92 -1 25 -19 26 -25 26 -110
l0 -90 73 3 72 3 0 110 c-1 126 -15 169 -68 208 -57 43 -139 55 -227 34z"/>
<path d="M6721 7937 c-56 -13 -111 -67 -128 -125 -18 -59 -18 -780 0 -838 28
-93 91 -133 212 -133 91 -1 144 23 182 80 l28 42 3 240 c2 132 1 245 -1 251
-3 7 -38 10 -106 8 l-101 -3 0 -70 c0 -61 2 -69 19 -69 49 0 51 -4 51 -142 0
-162 -11 -188 -77 -188 -74 0 -73 -6 -73 403 l0 358 25 24 c38 39 86 32 110
-16 9 -17 15 -57 15 -104 l0 -75 71 0 71 0 -4 118 c-4 133 -18 176 -71 207
-70 43 -139 53 -226 32z"/>
<path d="M1270 7855 l0 -75 70 0 c39 0 71 -1 72 -2 1 -2 5 -210 8 -463 l5
-460 67 -3 68 -3 2 463 3 463 73 3 72 3 0 74 0 75 -220 0 -220 0 0 -75z"/>
<path d="M1820 7923 c-4 -63 2 -1057 6 -1064 9 -15 120 -11 133 5 8 10 11 82
11 236 -2 288 1 292 61 88 21 -73 46 -155 54 -183 8 -27 21 -68 27 -90 18 -61
23 -65 100 -65 53 0 70 4 75 16 3 8 1 20 -6 27 -6 6 -11 21 -11 32 0 12 -3 25
-7 28 -7 8 -30 71 -88 247 -20 58 -40 113 -45 122 -14 25 -14 25 29 52 24 15
47 42 61 70 20 43 22 58 18 204 -3 152 -4 160 -30 199 -44 67 -92 83 -253 83
-74 0 -135 -3 -135 -7z m250 -163 c11 -11 20 -30 21 -42 2 -118 -1 -200 -10
-216 -12 -23 -62 -45 -88 -40 -16 3 -18 17 -21 161 l-3 157 41 0 c27 0 47 -7
60 -20z"/>
<path d="M2392 7393 l3 -538 190 0 190 0 3 72 3 72 -118 3 -118 3 0 155 0 155
103 3 102 3 0 69 0 69 -102 3 -103 3 -3 157 -3 157 122 3 121 3 0 70 0 70
-196 3 -196 2 2 -537z"/>
<path d="M3482 7393 l3 -538 70 0 70 0 5 230 5 230 60 6 c108 10 175 60 202
151 16 55 17 253 1 314 -14 53 -71 124 -98 124 -10 0 -22 5 -25 10 -4 6 -65
10 -151 10 l-144 0 2 -537z m257 361 c18 -23 21 -41 21 -130 0 -93 -2 -105
-23 -130 -17 -20 -33 -27 -63 -28 l-39 -1 -3 158 -3 157 45 0 c36 0 48 -5 65
-26z"/>
<path d="M4076 7828 c-9 -57 -22 -132 -27 -168 -6 -36 -14 -87 -19 -115 -5
-27 -14 -86 -20 -130 -6 -44 -15 -102 -20 -130 -5 -27 -14 -90 -20 -140 -7
-49 -18 -130 -25 -180 -7 -49 -11 -95 -8 -102 6 -14 128 -19 137 -5 5 9 24
111 32 175 l5 47 82 0 82 0 13 -65 c6 -35 12 -82 12 -103 0 -51 14 -62 79 -62
78 0 83 5 72 71 -5 30 -14 97 -21 149 -6 52 -15 120 -20 150 -5 30 -14 89 -20
130 -6 41 -15 100 -20 130 -5 30 -14 89 -20 130 -12 83 -24 152 -41 253 l-11
67 -102 0 -102 0 -18 -102z m134 -218 c0 -22 5 -70 10 -107 6 -38 16 -106 23
-153 18 -118 17 -120 -48 -120 -33 0 -54 5 -57 13 -5 13 26 255 44 350 12 66
28 76 28 17z"/>
<path d="M5707 7923 c-10 -9 -8 -1046 2 -1061 5 -9 27 -12 72 -10 l64 3 3 538
2 537 -68 0 c-38 0 -72 -3 -75 -7z"/>
<path d="M6007 7923 c-9 -8 -9 -1036 -1 -1057 5 -12 20 -16 59 -16 92 0 85
-23 85 286 0 151 4 274 8 274 5 0 19 -46 31 -102 13 -57 27 -121 33 -143 5
-22 13 -58 18 -80 5 -22 14 -62 20 -90 7 -27 16 -67 20 -89 4 -21 14 -42 21
-47 23 -14 125 -11 138 5 8 9 10 159 9 537 l-3 524 -70 0 -70 0 -1 -265 c0
-146 -1 -275 -2 -287 -3 -32 -22 -29 -22 3 0 15 -5 45 -11 68 -6 22 -15 57
-20 76 -11 42 -56 234 -71 305 -22 105 -22 105 -98 105 -36 0 -70 -3 -73 -7z"/>
<path d="M2557 6204 c-4 -4 -7 -33 -7 -65 0 -55 1 -57 31 -68 24 -8 30 -15 24
-28 -3 -10 -9 -39 -12 -65 -6 -53 9 -69 50 -51 29 14 70 156 65 228 l-3 50
-70 3 c-39 1 -74 0 -78 -4z"/>
<path d="M6283 6108 c-17 -6 -44 -24 -60 -40 l-28 -29 0 -322 0 -322 23 -26
c73 -82 254 -74 307 14 19 30 20 52 20 337 0 300 0 306 -22 336 -40 56 -152
80 -240 52z m129 -115 c17 -15 18 -37 18 -272 0 -284 -3 -301 -60 -301 -59 0
-60 6 -60 291 0 160 4 268 10 280 13 24 66 26 92 2z"/>
<path d="M1310 6063 c0 -26 5 -72 10 -102 6 -31 22 -123 35 -206 14 -82 30
-170 35 -195 5 -25 14 -76 20 -115 22 -130 9 -116 108 -113 l87 3 7 45 c3 25
11 77 18 115 6 39 13 93 16 120 12 116 34 92 58 -65 10 -63 22 -139 28 -167
l11 -53 83 0 c93 0 89 -4 105 99 5 36 14 89 19 116 6 28 15 77 20 110 6 33 15
85 20 115 5 30 14 87 20 125 5 39 14 99 19 134 6 36 8 68 5 73 -8 13 -101 9
-111 -4 -6 -7 -13 -38 -17 -68 -4 -30 -10 -80 -15 -110 -4 -30 -18 -128 -31
-217 -13 -90 -26 -163 -30 -163 -10 0 -30 73 -30 109 0 18 -4 51 -9 74 -5 23
-15 83 -21 132 -7 50 -18 125 -26 169 -8 43 -14 80 -14 82 0 2 -26 4 -59 4
l-59 0 -11 -65 c-6 -36 -15 -97 -21 -135 -6 -38 -15 -98 -20 -132 -5 -35 -12
-83 -16 -108 -9 -68 -25 -130 -34 -130 -4 0 -10 24 -13 53 -3 28 -10 81 -16
117 -12 82 -28 192 -42 295 -5 44 -15 85 -21 92 -6 7 -32 13 -59 13 l-49 0 0
-47z"/>
<path d="M2125 6088 c-3 -13 -4 -187 -3 -388 l3 -365 165 0 165 0 0 45 0 45
-100 5 -100 5 0 115 0 115 80 1 80 1 3 51 3 51 -83 3 -83 3 -3 113 -3 112 94
0 c101 0 117 7 117 51 0 60 2 59 -171 59 -156 0 -159 0 -164 -22z"/>
<path d="M2837 6103 c-4 -3 -7 -179 -7 -390 l0 -383 60 0 60 0 0 170 c0 230 7
229 86 -10 l52 -155 66 -3 c36 -2 66 -1 66 2 0 5 -52 141 -70 184 -24 55 -30
70 -44 115 l-16 47 46 44 46 44 -4 131 -3 131 -31 31 c-17 16 -48 34 -70 39
-45 11 -227 13 -237 3z m204 -113 c17 -9 19 -22 19 -99 0 -102 -14 -125 -72
-119 l-33 3 -3 99 c-1 55 0 106 2 113 6 16 59 17 87 3z"/>
<path d="M3287 6103 c-4 -3 -7 -179 -7 -390 l0 -383 165 0 165 0 0 50 0 49
-102 3 -103 3 -3 105 c-3 127 -1 130 105 130 l73 0 0 50 0 49 -87 3 -88 3 0
110 0 110 100 5 100 5 3 53 3 52 -159 0 c-87 0 -162 -3 -165 -7z"/>
<path d="M3914 6096 c-3 -8 -4 -31 -2 -52 l3 -39 52 -3 53 -3 2 -332 3 -332
60 0 60 0 3 333 2 332 48 0 c65 0 74 8 70 61 l-3 44 -173 3 c-141 2 -173 0
-178 -12z"/>
<path d="M4367 6103 c-4 -3 -7 -179 -7 -390 l0 -383 60 0 60 0 0 390 0 390
-53 0 c-30 0 -57 -3 -60 -7z"/>
<path d="M4618 6104 c-5 -4 -8 -180 -8 -391 l0 -383 60 0 60 0 0 165 c0 134 3
165 14 165 8 0 24 -33 41 -87 15 -49 30 -95 33 -103 3 -8 15 -42 26 -75 l21
-60 68 -3 c37 -2 67 -1 67 1 0 2 -31 79 -69 172 -38 93 -67 174 -64 181 3 7
13 16 24 19 11 4 30 23 44 43 23 33 25 46 25 140 0 119 -12 158 -61 193 -29
21 -46 24 -154 27 -66 2 -123 1 -127 -4z m202 -114 c12 -7 15 -30 14 -101 0
-103 -12 -123 -69 -117 l-30 3 -3 99 c-1 55 0 106 2 113 6 15 64 17 86 3z"/>
<path d="M5067 6103 c-4 -3 -7 -179 -7 -390 l0 -383 160 0 160 0 0 50 0 49
-97 3 -98 3 -3 104 c-2 67 1 108 9 117 8 10 35 14 90 14 l79 0 0 50 0 49 -87
3 -88 3 0 110 0 110 98 3 97 3 0 54 0 55 -153 0 c-85 0 -157 -3 -160 -7z"/>
<path d="M5498 6104 c-5 -4 -8 -180 -8 -391 l0 -383 128 1 c139 1 166 9 206
63 20 26 21 42 24 311 3 256 1 287 -15 321 -30 63 -69 78 -208 82 -66 2 -123
0 -127 -4z m214 -121 c16 -15 18 -36 18 -262 0 -286 -2 -294 -73 -289 l-42 3
-3 270 c-1 148 0 275 3 282 7 19 75 16 97 -4z"/>
<path d="M6670 5720 l0 -390 60 0 60 0 2 168 3 167 83 3 82 3 0 49 0 49 -82 3
-83 3 0 114 0 114 95 1 95 1 0 50 0 50 -157 3 -158 3 0 -391z"/>
<path d="M6370 5058 c-19 -5 -53 -14 -75 -20 -22 -7 -44 -15 -49 -20 -6 -4
-16 -8 -23 -8 -22 0 -123 -68 -171 -114 -57 -53 -104 -126 -133 -207 -21 -56
-24 -82 -24 -204 0 -153 9 -199 59 -305 21 -45 52 -86 101 -135 133 -131 285
-183 506 -171 100 5 146 14 266 50 37 12 58 14 77 6 16 -6 27 -6 31 1 4 5 6
98 5 207 l-1 198 25 23 c14 13 36 29 48 35 13 6 24 22 26 34 l3 22 -220 0
c-214 0 -221 -1 -221 -20 0 -12 14 -29 35 -42 55 -36 65 -69 65 -206 0 -135
-7 -163 -47 -189 -37 -25 -200 -24 -256 1 -52 23 -124 91 -149 140 -53 103
-62 152 -62 331 -1 152 1 177 22 240 40 121 104 198 200 241 42 19 69 24 138
24 75 0 94 -4 149 -30 69 -33 168 -130 199 -193 11 -24 24 -37 36 -37 19 0 20
8 20 123 0 106 -3 126 -17 139 -20 17 -107 58 -123 58 -6 0 -18 4 -28 9 -59
30 -328 43 -412 19z"/>
<path d="M1250 5040 c0 -12 9 -24 23 -29 13 -5 36 -24 50 -41 l27 -32 0 -465
c0 -452 -1 -466 -20 -494 -12 -15 -33 -34 -48 -41 -16 -8 -27 -21 -27 -33 0
-19 8 -20 228 -23 l227 -2 0 22 c0 16 -13 31 -40 47 -21 13 -44 36 -50 50 -7
17 -9 108 -8 251 l3 225 205 0 205 0 0 -243 0 -244 -27 -21 c-15 -12 -37 -29
-49 -38 -15 -10 -20 -21 -16 -32 6 -15 30 -17 232 -17 l225 0 0 24 c0 17 -9
27 -30 36 -17 7 -39 25 -50 40 -19 27 -20 46 -20 493 0 456 0 465 21 491 11
14 34 33 50 41 17 9 29 24 29 35 0 19 -8 20 -230 20 -224 0 -230 -1 -230 -20
0 -12 9 -24 23 -29 13 -5 36 -24 50 -41 l27 -32 0 -179 0 -179 -210 0 -210 0
0 177 c0 174 0 176 26 210 14 19 37 38 50 43 14 6 24 18 24 30 0 19 -6 20
-230 20 -224 0 -230 -1 -230 -20z"/>
<path d="M2467 5053 c-15 -15 -5 -33 26 -48 19 -9 43 -33 55 -54 22 -38 22
-46 22 -478 0 -374 -2 -445 -15 -470 -17 -33 -35 -51 -69 -68 -11 -6 -21 -19
-21 -30 0 -19 9 -20 228 -23 207 -2 228 -1 234 15 4 11 0 20 -13 27 -10 6 -36
28 -56 49 l-38 38 0 457 c0 432 1 459 19 488 11 17 33 38 50 45 31 14 45 34
35 50 -6 10 -447 13 -457 2z"/>
<path d="M3014 5046 c-7 -19 3 -36 21 -36 7 0 27 -16 44 -36 l32 -35 -3 -475
-3 -474 -26 -22 c-14 -13 -34 -28 -45 -34 -10 -6 -19 -20 -19 -30 0 -18 13
-19 285 -22 373 -4 470 9 598 84 270 158 358 570 181 845 -69 106 -145 165
-277 216 -67 26 -69 26 -424 30 -316 4 -359 3 -364 -11z m666 -115 c87 -44
142 -116 181 -236 9 -27 13 -95 13 -210 0 -157 -2 -176 -27 -244 -43 -122
-114 -203 -208 -237 -49 -18 -202 -30 -243 -20 l-26 6 0 479 c0 263 3 481 8
485 4 5 63 6 132 4 104 -4 132 -9 170 -27z"/>
<path d="M4260 5035 c0 -15 6 -25 15 -25 8 0 30 -16 50 -35 l35 -36 0 -459 c0
-312 -4 -467 -11 -483 -6 -13 -28 -35 -50 -48 -26 -16 -39 -31 -39 -46 l0 -23
230 0 230 0 0 24 c0 17 -9 27 -31 36 -17 8 -40 27 -50 44 -18 29 -19 59 -19
493 l0 461 27 32 c14 17 37 36 50 41 14 5 23 17 23 29 0 19 -6 20 -230 20
l-230 0 0 -25z"/>
<path d="M4810 5039 c0 -11 13 -32 30 -45 16 -14 34 -42 40 -62 8 -25 10 -187
8 -493 -3 -490 -2 -480 -55 -500 -16 -6 -23 -17 -23 -34 l0 -26 133 3 c124 3
132 4 132 23 0 11 -10 25 -23 31 -52 26 -51 21 -52 432 0 210 3 382 8 382 6 0
144 -199 470 -683 l127 -187 60 2 60 3 5 542 c5 526 6 542 25 560 11 11 28 22
38 26 9 3 17 16 17 27 0 19 -6 20 -135 20 -126 0 -135 -1 -135 -19 0 -10 12
-27 28 -37 52 -34 51 -29 52 -351 0 -167 -4 -303 -8 -303 -5 0 -107 147 -228
328 -120 180 -222 329 -226 330 -5 2 -8 10 -8 17 0 28 -40 35 -189 35 -146 0
-151 -1 -151 -21z"/>
<path d="M4355 3624 c-74 -19 -126 -66 -149 -134 -13 -38 -16 -106 -16 -410 0
-394 2 -412 54 -477 42 -53 85 -67 207 -67 100 -1 108 0 154 29 33 20 56 44
71 75 23 45 23 48 23 440 0 392 0 395 -23 440 -13 27 -40 57 -65 73 -38 26
-52 29 -139 32 -53 2 -106 2 -117 -1z m155 -166 c19 -21 20 -33 20 -377 0
-350 0 -355 -22 -378 -14 -15 -33 -23 -54 -23 -92 0 -94 6 -94 394 0 328 4
368 37 394 28 20 89 15 113 -10z"/>
<path d="M6611 3623 c-39 -8 -83 -37 -113 -74 -38 -47 -56 -168 -39 -268 10
-62 16 -76 59 -122 26 -28 79 -73 117 -100 142 -98 155 -119 155 -245 0 -108
-15 -134 -78 -134 -65 1 -76 18 -82 123 l-5 92 -85 0 -85 0 2 -98 c2 -110 13
-154 50 -198 41 -48 85 -62 198 -63 139 -1 194 23 236 106 16 31 19 59 19 177
0 155 -11 190 -77 257 -39 39 -139 108 -171 118 -13 4 -36 26 -53 48 -26 37
-29 48 -29 120 0 94 16 118 80 118 60 0 74 -22 80 -128 l5 -87 83 -3 82 -3 0
109 c0 145 -21 191 -109 241 -25 13 -196 24 -240 14z"/>
<path d="M1330 3546 l0 -75 78 -3 77 -3 5 -455 5 -455 85 0 85 0 5 455 5 455
80 5 80 5 0 70 0 70 -252 3 -253 2 0 -74z"/>
<path d="M1952 3088 l3 -533 83 -3 82 -3 0 224 c0 181 3 227 14 236 9 7 41 11
83 9 l68 -3 5 -230 5 -230 83 -3 82 -3 0 536 0 535 -85 0 -85 0 -2 -222 -3
-223 -80 0 -80 0 -3 223 -2 222 -85 0 -85 0 2 -532z"/>
<path d="M2632 3088 l3 -533 225 0 225 0 0 70 0 70 -140 5 -140 5 -3 135 c-4
194 -14 179 126 182 l117 3 3 72 3 72 -123 3 -123 3 -3 125 c-4 184 -17 169
146 172 l137 3 0 70 0 70 -228 3 -227 2 2 -532z"/>
<path d="M3552 3088 l3 -533 175 0 c197 0 226 7 278 71 36 43 52 116 52 233 0
110 -13 157 -57 203 l-36 37 32 27 c47 39 61 83 61 187 0 133 -16 193 -65 242
-56 56 -96 65 -285 65 l-160 0 2 -532z m292 370 c35 -15 40 -36 37 -153 -3
-123 -13 -137 -101 -133 l-55 3 -3 134 c-1 74 0 141 2 148 7 16 86 17 120 1z
m18 -468 c15 -19 18 -41 18 -136 0 -102 -2 -116 -20 -134 -17 -17 -31 -20 -78
-18 l-57 3 -3 145 c-1 79 0 150 3 158 9 24 114 11 137 -18z"/>
<path d="M4860 3084 l0 -536 183 4 c169 4 185 6 225 29 26 14 54 40 68 65 l24
41 0 390 c0 433 -1 439 -64 489 -55 44 -105 54 -278 54 l-158 0 0 -536z m293
375 c12 -7 25 -17 29 -23 4 -6 8 -167 8 -358 l0 -348 -24 -15 c-16 -11 -41
-15 -78 -13 l-53 3 -3 360 c-1 198 0 370 3 383 5 19 12 22 51 22 25 0 55 -5
67 -11z"/>
<path d="M5532 3088 l3 -533 83 -3 82 -3 0 536 0 535 -85 0 -85 0 2 -532z"/>
<path d="M5880 3613 c0 -5 -2 -240 -4 -523 -3 -284 -2 -521 3 -528 6 -9 60
-12 227 -10 l219 3 0 70 0 70 -137 3 c-76 1 -138 4 -139 5 -5 14 -9 243 -4
274 l6 42 117 3 117 3 3 72 3 72 -123 3 -123 3 -2 125 c-2 185 -16 169 146
172 l136 3 3 73 3 72 -226 0 c-124 0 -225 -3 -225 -7z"/>
<path d="M2479 2137 c-99 -45 -104 -180 -8 -230 78 -41 172 3 184 88 16 106
-81 185 -176 142z"/>
<path d="M2930 2129 c-50 -31 -59 -48 -60 -111 0 -50 4 -60 30 -86 57 -57 140
-55 190 6 92 111 -37 265 -160 191z"/>
<path d="M3393 2133 c-34 -17 -73 -82 -73 -119 1 -36 35 -87 70 -106 71 -38
146 -14 180 59 18 39 19 50 9 81 -28 88 -107 124 -186 85z"/>
<path d="M3855 2131 c-43 -26 -65 -63 -65 -112 0 -51 25 -94 66 -114 91 -43
184 15 184 115 0 98 -104 161 -185 111z"/>
<path d="M4314 2131 c-46 -28 -64 -59 -64 -109 0 -105 97 -163 190 -114 37 20
69 71 69 112 2 58 -73 130 -134 130 -16 0 -44 -9 -61 -19z"/>
<path d="M4773 2130 c-99 -60 -73 -218 39 -237 51 -8 81 2 117 38 27 27 31 37
31 86 0 52 -3 59 -40 95 -48 44 -94 50 -147 18z"/>
<path d="M5235 2131 c-44 -26 -65 -64 -65 -114 0 -35 7 -51 33 -82 28 -32 40
-38 82 -42 61 -5 104 18 128 70 22 45 21 74 -2 117 -34 65 -115 89 -176 51z"/>
<path d="M5692 2130 c-71 -43 -81 -148 -21 -206 26 -25 38 -29 89 -29 69 0
103 24 122 88 34 112 -90 208 -190 147z"/>
</g>
</svg>
